<svg width="260" height="260" viewBox="0 0 260 260" fill="none" xmlns="http://www.w3.org/2000/svg">
<g clip-path="url(#clip0_9_148)">
<rect width="260" height="260" fill="black"/>
<rect x="-70" y="182" width="659.927" height="84.4749" fill="url(#paint0_linear_9_148)"/>
<rect x="-70" y="182" width="659.927" height="84.4749" fill="url(#paint1_linear_9_148)"/>
<path d="M157.087 82.6981C165.371 82.6981 172.087 89.4138 172.087 97.6981V147C172.087 155.284 165.371 162 157.087 162H153.51C145.226 162 138.51 155.284 138.51 147V135.398C138.519 135.35 138.524 135.3 138.524 135.249C138.524 118.282 152.268 104.528 169.221 104.527C169.684 104.527 170.059 104.152 170.059 103.69V102.571C170.059 102.235 169.86 101.945 169.574 101.812H138.51V97.6981C138.51 89.4138 145.226 82.6981 153.51 82.6981H157.087Z" fill="white"/>
<path d="M68 122.349C68 100.45 85.7523 82.6981 107.651 82.6981H119.399C126.616 82.6981 132.467 88.5486 132.467 95.7656V148.932C132.467 156.149 126.616 162 119.399 162H107.651C85.7524 162 68 144.248 68 122.349V122.349Z" fill="white"/>
<path d="M190.885 42.6407C190.885 55.6157 201.395 66.134 214.36 66.134V66.134C214.713 66.134 215 66.4206 215 66.7742V67.6295C215 67.9831 214.713 68.2698 214.36 68.2698V68.2698C201.395 68.2698 190.885 78.788 190.885 91.763V91.763C190.885 92.1169 190.598 92.4038 190.244 92.4038H189.391C189.038 92.4038 188.751 92.1169 188.751 91.763V91.763C188.751 78.788 178.241 68.2698 165.276 68.2698V68.2698C164.922 68.2698 164.635 67.9831 164.635 67.6295V66.7742C164.635 66.4206 164.922 66.134 165.276 66.134V66.134C178.241 66.134 188.751 55.6157 188.751 42.6407V42.6407C188.751 42.2869 189.038 42 189.391 42H190.244C190.598 42 190.885 42.2869 190.885 42.6407V42.6407Z" fill="white"/>
<path d="M47.8283 224.012C47.8283 224.852 47.6403 225.584 47.2643 226.208C46.8883 226.824 46.3803 227.332 45.7403 227.732C45.1003 228.124 44.3803 228.404 43.5803 228.572L48.6443 236H46.7243L41.9483 228.692H39.3803V236H37.8443V219.512H41.7923C43.7683 219.512 45.2683 219.896 46.2923 220.664C47.3163 221.432 47.8283 222.548 47.8283 224.012ZM46.1363 224.012C46.1363 222.876 45.8083 222.064 45.1523 221.576C44.5043 221.08 43.4883 220.832 42.1043 220.832H39.3803V227.372H42.0563C43.3443 227.372 44.3443 227.12 45.0563 226.616C45.7763 226.104 46.1363 225.236 46.1363 224.012ZM64.5229 227.78C64.5229 229.42 64.3029 230.88 63.8629 232.16C63.4229 233.432 62.7629 234.432 61.8829 235.16C61.0109 235.88 59.9189 236.24 58.6069 236.24C57.3029 236.24 56.2109 235.888 55.3309 235.184C54.4509 234.472 53.7909 233.484 53.3509 232.22C52.9109 230.956 52.6909 229.488 52.6909 227.816C52.6909 226.168 52.9109 224.704 53.3509 223.424C53.7909 222.136 54.4509 221.124 55.3309 220.388C56.2109 219.652 57.3029 219.284 58.6069 219.284C59.9189 219.284 61.0109 219.644 61.8829 220.364C62.7629 221.076 63.4229 222.072 63.8629 223.352C64.3029 224.624 64.5229 226.1 64.5229 227.78ZM62.8909 227.78C62.8909 225.532 62.5589 223.792 61.8949 222.56C61.2309 221.32 60.1349 220.7 58.6069 220.7C57.0789 220.7 55.9829 221.324 55.3189 222.572C54.6549 223.82 54.3229 225.568 54.3229 227.816C54.3229 230.056 54.6669 231.784 55.3549 233C56.0429 234.216 57.1269 234.824 58.6069 234.824C60.1269 234.824 61.2189 234.216 61.8829 233C62.5549 231.776 62.8909 230.036 62.8909 227.78ZM71.2695 236V219.512H72.8055V234.512H80.4495L80.2575 236H71.2695ZM88.8041 220.88V226.916H95.0441V228.32H88.8041V234.668H96.4961V236H87.2681V219.512H96.2201L96.0161 220.88H88.8041ZM129.285 219.512L130.221 236H128.649L128.037 226.916C128.005 226.364 127.973 225.776 127.941 225.152C127.917 224.528 127.897 223.928 127.881 223.352C127.865 222.768 127.849 222.264 127.833 221.84C127.825 221.416 127.817 221.132 127.809 220.988L124.749 233H122.925L119.649 220.988C119.649 221.132 119.645 221.428 119.637 221.876C119.637 222.324 119.637 222.848 119.637 223.448C119.637 224.04 119.629 224.644 119.613 225.26C119.597 225.868 119.577 226.408 119.553 226.88L119.013 236H117.477L118.413 219.512H120.969L123.897 230.996L126.693 219.512H129.285ZM143.604 231.596H136.572L135.12 236H133.68L139.14 219.512H141.168L146.64 236H145.056L143.604 231.596ZM137.088 230.204H143.1L140.112 220.94L137.088 230.204ZM159.075 236L152.835 221.132C152.827 221.26 152.831 221.528 152.847 221.936C152.863 222.336 152.883 222.824 152.907 223.4C152.939 223.976 152.963 224.588 152.979 225.236C153.003 225.876 153.015 226.504 153.015 227.12V236H151.503V219.512H153.699L160.107 234.476C160.123 234.332 160.115 233.96 160.083 233.36C160.051 232.76 160.015 232.02 159.975 231.14C159.943 230.26 159.927 229.328 159.927 228.344V219.512H161.439V236H159.075ZM176.225 231.596H169.193L167.741 236H166.301L171.761 219.512H173.789L179.261 236H177.677L176.225 231.596ZM169.709 230.204H175.721L172.733 220.94L169.709 230.204ZM189.332 236.24C188.108 236.24 187.032 235.932 186.104 235.316C185.176 234.692 184.452 233.752 183.932 232.496C183.412 231.24 183.152 229.66 183.152 227.756C183.152 226.332 183.34 225.092 183.716 224.036C184.092 222.972 184.596 222.088 185.228 221.384C185.868 220.68 186.584 220.156 187.376 219.812C188.176 219.46 188.992 219.284 189.824 219.284C190.864 219.284 191.72 219.428 192.392 219.716C193.064 220.004 193.724 220.444 194.372 221.036L193.352 222.092C192.848 221.612 192.304 221.26 191.72 221.036C191.136 220.812 190.488 220.7 189.776 220.7C189.168 220.7 188.568 220.82 187.976 221.06C187.392 221.292 186.864 221.676 186.392 222.212C185.92 222.748 185.54 223.468 185.252 224.372C184.972 225.276 184.832 226.4 184.832 227.744C184.832 229.384 185.012 230.728 185.372 231.776C185.732 232.816 186.264 233.584 186.968 234.08C187.68 234.576 188.548 234.824 189.572 234.824C190.196 234.824 190.792 234.752 191.36 234.608C191.936 234.456 192.492 234.232 193.028 233.936V228.536H189.44L189.224 227.108H194.612V234.872C193.892 235.24 193.128 235.56 192.32 235.832C191.512 236.104 190.516 236.24 189.332 236.24ZM202.978 220.88V226.916H209.218V228.32H202.978V234.668H210.67V236H201.442V219.512H210.394L210.191 220.88H202.978ZM227.245 224.012C227.245 224.852 227.057 225.584 226.681 226.208C226.305 226.824 225.797 227.332 225.157 227.732C224.517 228.124 223.797 228.404 222.997 228.572L228.061 236H226.141L221.365 228.692H218.797V236H217.261V219.512H221.209C223.185 219.512 224.685 219.896 225.709 220.664C226.733 221.432 227.245 222.548 227.245 224.012ZM225.553 224.012C225.553 222.876 225.225 222.064 224.569 221.576C223.921 221.08 222.905 220.832 221.521 220.832H218.797V227.372H221.473C222.761 227.372 223.761 227.12 224.473 226.616C225.193 226.104 225.553 225.236 225.553 224.012Z" fill="white"/>
</g>
<defs>
<linearGradient id="paint0_linear_9_148" x1="-70" y1="266.475" x2="589.927" y2="266.475" gradientUnits="userSpaceOnUse">
<stop stop-color="#E10DC1"/>
<stop offset="0.206731" stop-color="#5E00DA"/>
<stop offset="0.408654" stop-color="#29589F"/>
<stop offset="0.591346" stop-color="#19BFCE"/>
<stop offset="0.793269" stop-color="#5CE9A9"/>
<stop offset="1" stop-color="#F20E97"/>
</linearGradient>
<linearGradient id="paint1_linear_9_148" x1="227.669" y1="266.475" x2="227.837" y2="181.998" gradientUnits="userSpaceOnUse">
<stop stop-opacity="0"/>
<stop offset="0.408654" stop-opacity="0.73"/>
<stop offset="0.855699"/>
</linearGradient>
<clipPath id="clip0_9_148">
<rect width="260" height="260" fill="white"/>
</clipPath>
</defs>
</svg>
