<svg width="260" height="260" viewBox="0 0 260 260" fill="none" xmlns="http://www.w3.org/2000/svg">
<g clip-path="url(#clip0_29_286)">
<rect width="260" height="260" fill="black"/>
<rect x="-21" width="659.927" height="266.475" fill="url(#paint0_linear_29_286)"/>
<rect x="-21" width="659.927" height="266.475" fill="url(#paint1_linear_29_286)"/>
<path d="M160.123 89.6033C170.267 89.6034 178.491 97.8266 178.491 107.97V177.633C178.491 187.776 170.267 196 160.123 196H151.861C141.717 196 133.494 187.777 133.494 177.633V160.302C133.504 160.24 133.511 160.176 133.511 160.11C133.511 137.346 151.93 118.892 174.651 118.891C175.27 118.891 175.772 118.389 175.773 117.769V116.265C175.773 115.815 175.506 115.427 175.122 115.249H133.494V107.97C133.494 97.8266 141.717 89.6034 151.861 89.6033H160.123Z" fill="white"/>
<path d="M39 142.802C39 113.421 62.8177 89.6033 92.1984 89.6033H107.882C117.554 89.6033 125.394 97.4438 125.394 107.116V178.488C125.394 188.159 117.554 196 107.882 196H92.1984C62.8177 196 39 172.182 39 142.802Z" fill="white"/>
<path d="M203.682 35.8596C203.682 53.2677 217.767 67.3798 235.142 67.3798C235.616 67.3798 236 67.7639 236 68.2378V69.3873C236 69.8611 235.616 70.2453 235.142 70.2453C217.767 70.2453 203.682 84.3573 203.682 101.765C203.682 102.24 203.298 102.625 202.823 102.625H201.682C201.207 102.625 200.822 102.24 200.822 101.765C200.822 84.3573 186.737 70.2453 169.363 70.2453C168.889 70.2453 168.505 69.8611 168.505 69.3873V68.2378C168.505 67.7639 168.889 67.3798 169.363 67.3798C186.737 67.3798 200.822 53.2677 200.822 35.8596C200.822 35.3849 201.207 35 201.682 35H202.823C203.298 35 203.682 35.3849 203.682 35.8596Z" fill="white"/>
</g>
<defs>
<linearGradient id="paint0_linear_29_286" x1="-21" y1="266.475" x2="638.927" y2="266.475" gradientUnits="userSpaceOnUse">
<stop stop-color="#E10DC1"/>
<stop offset="0.206731" stop-color="#5E00DA"/>
<stop offset="0.408654" stop-color="#29589F"/>
<stop offset="0.591346" stop-color="#19BFCE"/>
<stop offset="0.793269" stop-color="#5CE9A9"/>
<stop offset="1" stop-color="#F20E97"/>
</linearGradient>
<linearGradient id="paint1_linear_29_286" x1="276.669" y1="266.475" x2="278.34" y2="0.00166788" gradientUnits="userSpaceOnUse">
<stop stop-opacity="0"/>
<stop offset="0.408654" stop-opacity="0.73"/>
<stop offset="0.855699"/>
</linearGradient>
<clipPath id="clip0_29_286">
<rect width="260" height="260" fill="white"/>
</clipPath>
</defs>
</svg>
